<?xml version="1.0" encoding="iso-8859-1"?>
<!-- Generator: Adobe Illustrator 19.0.0, SVG Export Plug-In . SVG Version: 6.00 Build 0)  -->
<svg version="1.1" id="Capa_1" xmlns="http://www.w3.org/2000/svg" xmlns:xlink="http://www.w3.org/1999/xlink" x="0px" y="0px"
	 viewBox="0 0 512 512" style="enable-background:new 0 0 512 512;" xml:space="preserve">
<g transform="matrix(1.25 0 0 -1.25 0 45)">
	<g>
		<path style="fill:#3B88C3;" d="M0-259.822v-68.267C0-353.222,20.378-373.6,45.511-373.6h318.578
			c25.133,0,45.511,20.378,45.511,45.511v68.267H0z"/>
		<path style="fill:#88C9F9;" d="M364.089,36H45.511C20.378,36,0,15.622,0-9.511v-273.067h409.6V-9.511
			C409.6,15.622,389.222,36,364.089,36z"/>
	</g>
	<g>
		<g>
			<g>
				<path style="fill:#F4900C;" d="M79.644-293.956c0,11.378,11.378,56.889,125.156,56.889c136.533,0,170.667-45.511,170.667-56.889
					c0-11.378,0-22.756-159.289-22.756C79.644-316.711,79.644-305.333,79.644-293.956"/>
				<g>
					<path style="fill:#3E721D;" d="M280.089-70.522c0,0-27.864,25.486-67.459,32.529c-39.617,7.054-62.907-9.762-62.907-9.762
						S179.1,7.506,228.616-1.312C287.883-11.869,280.089-70.522,280.089-70.522"/>
					<path style="fill:#3E721D;" d="M272.801-60.584c0,0,20.742,31.551,57.401,48.128S391.483-7.2,391.483-7.2
						S356.518,40.462,310.7,19.731C255.848-5.083,272.801-60.584,272.801-60.584"/>
				</g>
				<path style="fill:#662113;" d="M238.933-243.39c0-3.994,2.844-11.457,22.756-16.429c31.13-7.782,34.133,5.051,34.133,5.051
					s11.378,34.133,11.378,102.4c0,61.622-25.6,107.144-25.6,107.144l-29.389-3.789c0,0,15.167-31.301,16.111-92.934
					C269.028-187.456,238.933-239.396,238.933-243.39"/>
				<g>
					<path style="fill:#5C913B;" d="M178.911-188.955c0,0-35.351,62.999,4.403,113.96c46.41,59.483,104.755,32.734,104.755,32.734
						s-37.092-29.594-65.047-63.226C191.142-143.843,178.911-188.955,178.911-188.955"/>
					<path style="fill:#5C913B;" d="M394.178-134.828c0,0,16.156,68.938-40.937,99.089c-57.423,30.344-93.696-15.076-93.696-15.076
						s37.695-1.069,74.319-21.538C375.598-95.689,394.178-134.828,394.178-134.828"/>
				</g>
				<path style="fill:#FFCC4D;" d="M136.533-43.644c0-31.425-25.464-56.889-56.889-56.889S22.756-75.07,22.756-43.644
					s25.464,56.889,56.889,56.889S136.533-12.219,136.533-43.644"/>
				<path style="fill:#FFAC33;" d="M125.156-43.644c0-25.133-20.378-45.511-45.511-45.511S34.133-68.778,34.133-43.644
					S54.511,1.867,79.644,1.867S125.156-18.511,125.156-43.644"/>
			</g>
		</g>
	</g>
</g>
<g>
</g>
<g>
</g>
<g>
</g>
<g>
</g>
<g>
</g>
<g>
</g>
<g>
</g>
<g>
</g>
<g>
</g>
<g>
</g>
<g>
</g>
<g>
</g>
<g>
</g>
<g>
</g>
<g>
</g>
</svg>
